<?xml version="1.0" encoding="utf-8"?>
<!-- Generator: Adobe Illustrator 16.0.0, SVG Export Plug-In . SVG Version: 6.00 Build 0)  -->
<!DOCTYPE svg PUBLIC "-//W3C//DTD SVG 1.1//EN" "http://www.w3.org/Graphics/SVG/1.1/DTD/svg11.dtd">
<svg version="1.1" id="圖層_1" xmlns="http://www.w3.org/2000/svg" xmlns:xlink="http://www.w3.org/1999/xlink" x="0px" y="0px"
	 width="200px" height="66px" viewBox="0 0 200 66" enable-background="new 0 0 200 66" xml:space="preserve">
<g>
	<path fill="#FFFFFF" d="M169.939,10.915c-2.322,0-4.424,0.932-5.961,2.439h10.967v1.203h-5.004v1.039
		c-0.009,0.602-0.041,1.176-0.096,1.723h5.482v1.258h-4.348c0.311,1.248,0.784,2.273,1.422,3.076
		c0.83,1.048,1.933,1.908,3.309,2.584l-0.807,1.313c-1.631-0.949-2.848-2.016-3.65-3.199c-0.766-1.012-1.303-2.242-1.613-3.691
		c-0.255,1.33-0.674,2.475-1.258,3.432c-0.898,1.482-2.369,2.621-4.402,3.422c1.536,1.506,3.639,2.437,5.959,2.437
		c4.703,0,8.518-3.813,8.518-8.517S174.642,10.915,169.939,10.915z"/>
	<path fill="#FFFFFF" d="M163.132,24.333c2.097-0.867,3.519-1.96,4.266-3.281c0.401-0.729,0.697-1.555,0.889-2.475h-5.004v-1.258
		h5.195c0.064-0.557,0.096-1.131,0.096-1.723v-1.039h-4.73V13.49c-1.496,1.535-2.422,3.63-2.422,5.942
		c0,2.217,0.854,4.229,2.242,5.744L163.132,24.333z"/>
</g>
<path fill="#FFFFFF" d="M169.939,29.58c-4.703,0-8.518,3.814-8.518,8.518c0,4.703,3.814,8.516,8.518,8.516s8.518-3.813,8.518-8.516
	C178.457,33.394,174.642,29.58,169.939,29.58z M175.751,34.303h-6.344v2.256c1.613,0.93,3.254,1.979,4.922,3.145l-0.902,1.354
	c-1.633-1.275-2.973-2.242-4.02-2.898v6.945h-1.422V34.303h-4.813v-1.257h12.578V34.303z"/>
<path fill="#FFFFFF" d="M57.853,42.77c-0.017,0.008-0.037,0.021-0.055,0.029c-1.523-1.727-3.044-3.453-4.572-5.189
	c-3.239,1.732-6.476,3.459-9.707,5.189c-0.007-0.014-0.014-0.023-0.022-0.033c0.678-0.832,1.355-1.658,2.033-2.488
	c1.563-1.902,3.13-3.809,4.695-5.715c0.127-0.148,0.133-0.225,0.052-0.314l-4.533-5.121c2.761,0,5.901,0,8.657,0.009
	c0.22,0,0.338-0.069,0.501-0.272c2.179-2.662,4.359-5.316,6.544-7.974c0.045-0.058,0.092-0.104,0.174-0.201
	c-0.037,0.232-0.063,0.424-0.099,0.62c-0.429,2.515-0.858,5.023-1.297,7.538c-0.037,0.211,0.011,0.289,0.241,0.289
	c2.756-0.009,5.501-0.009,8.251-0.009h0.285c-0.003,0.021-0.002,0.038-0.003,0.057c-3.228,1.724-6.454,3.45-9.709,5.187
	c-0.025,0.146-0.038,0.385-0.033,0.357c2.132,1.029,4.192,2.123,6.16,3.305c3.129,1.877,5.917,3.92,7.916,6.33
	c1.599,1.926,2.467,3.914,2.188,5.986c-0.239,1.785-1.288,3.334-2.861,4.713c-11.06,9.705-34.457,6.34-48.001,2.055
	c-0.659-0.209-1.295-0.42-1.905-0.631c10.214,6.688,27.828,8.344,39.568,6.555c7.692-1.174,14.014-3.566,18.515-7.586
	c1.933-1.729,3.339-3.631,3.931-5.795c0.732-2.686,0.12-5.373-1.599-8.043c-1.922-2.984-4.854-5.592-8.416-7.947
	c-2.123-1.403-4.38-2.69-6.803-3.828c5.16-2.757,10.311-5.51,15.455-8.255c0.001-0.043,0-0.086,0.005-0.142h-0.706
	c-6.826,0-13.641,0-20.479,0.021c-0.577,0-0.693-0.195-0.6-0.716c1.087-6.24,2.155-12.47,3.219-18.711
	c0.09-0.487,0.154-0.965,0.243-1.54c-0.205,0.238-0.318,0.358-0.433,0.5C59.233,7.597,53.82,14.186,48.417,20.796
	c-0.412,0.498-0.703,0.671-1.245,0.671c-4.717-0.015-9.438-0.014-14.159-0.015c-1.221-0.035-2.44-0.041-3.661-0.004
	c-0.9,0-1.802-0.003-2.702-0.003l-0.197,0.175c-2.905,0.237-5.806,0.691-8.697,1.414c-2.706,0.675-5.174,1.532-7.262,2.668
	c-2.597,1.409-4.24,3.031-5.085,4.821c-0.944,1.999-0.878,3.943-0.174,5.847c0.759,2.043,2.089,4.566,4.401,6.225
	c0,0,11.181-0.313,11.345-0.314c-0.079-0.072-4.566-4.488-5.756-6.91c-0.766-1.561-1.167-3.163-0.723-4.849
	c0.358-1.346,1.277-2.614,3.076-3.744c1.549-0.978,3.488-1.691,5.67-2.226c1.478-0.36,2.973-0.638,4.476-0.847
	c3.063,3.489,6.129,6.979,9.21,10.449c0.2,0.229,0.185,0.414-0.128,0.781c-3.887,4.734-7.773,9.465-11.656,14.188
	c-1.684,2.059-3.362,4.111-5.047,6.174c0.022,0.021,0.038,0.055,0.055,0.088c8.021-4.301,16.053-8.586,24.1-12.885
	c3.79,4.311,7.565,8.598,11.347,12.885c0.042-0.021,0.091-0.055,0.136-0.076c0.744-4.369,1.493-8.74,2.24-13.111
	c0.742,0.383,1.476,0.775,2.191,1.188c2.675,1.535,5.075,3.209,6.664,5.262c1.622,2.094,2.024,4.176,0.754,6.195
	c-0.388,0.617-0.935,1.184-1.409,1.775c0.86-0.582,1.69-1.188,2.45-1.83c1.419-1.197,2.48-2.529,2.972-4.047
	c0.481-1.496,0.059-2.982-0.997-4.461c-1.622-2.27-4.057-4.199-6.82-5.984c-1.592-1.027-3.26-1.99-4.983-2.906"/>
<g>
	<path fill="#FFFFFF" d="M119.977,41.855l1.932-1.803l3.122,2.832l-1.385,1.416H95.355l-0.644-2.445h12.424v-3.123h-8.304
		l-0.482-2.061c-0.752,0.58-1.535,1.041-2.35,1.385l-1.159-1.803c1.824-2.316,3.11-4.913,3.862-7.789l-1.384,0.161V14.432
		l5.31,0.579v0.741h13.486l2.317-1.738l4.442,3.411l-1.256,1.449v8.884l-5.407,0.675v-1.384h-13.583v0.934l-2.092,0.258l3.798,0.837
		c-0.3,0.579-0.611,1.147-0.933,1.705h3.733v-3.508l5.568,0.74v2.768h6.308l1.771-1.576l2.993,2.639l-1.416,1.416h-9.655v3.026h5.6
		l1.964-1.836l3.121,2.865l-1.384,1.416h-9.301v3.123H119.977z M101.696,33.261c-0.901,1.202-1.856,2.209-2.864,3.026h8.304v-3.026
		H101.696z M102.628,20.226h13.583v-1.931h-13.583V20.226z M102.628,24.539h13.583v-1.963h-13.583V24.539z"/>
	<path fill="#FFFFFF" d="M139.16,14.046l5.568,0.708v11.458h2.413l-1.222-1.159c0.965-1.373,1.909-3.036,2.832-4.988
		c0.772-1.523,1.395-2.982,1.867-4.377l5.149,2.768c-1.91,3.025-4.12,5.611-6.631,7.757h3.831l1.898-1.867l3.154,2.833l-1.353,1.384
		h-7.821v10.717c0,0.58,0.14,0.869,0.419,0.869h3.315c0.451,0,0.708-0.256,0.772-0.771l0.934-3.541l2.06,0.322
		c-0.107,0.6-0.161,1.115-0.161,1.545c0,1.545,0.633,2.801,1.899,3.766c-0.666,2.123-1.985,3.186-3.96,3.186h-8.206
		c-1.674-0.191-2.564-1.502-2.672-3.926V28.562h-4.346v3.927c0,5.837-3.519,10.107-10.557,12.81l-1.673-2.285
		c4.463-2.789,6.693-6.48,6.693-11.072v-3.38h-6.114l-0.579-2.35h7.273c-1.523-3.54-3.111-6.459-4.764-8.754l2.061-1.867
		c2.939,2.253,5.278,4.517,7.016,6.791l-3.798,3.83h4.699V14.046z"/>
</g>
<g>
	<path fill="#FFFFFF" d="M95.238,58.387l1.005-1.496c0.981,0.762,2,1.346,3.06,1.748s2.111,0.602,3.149,0.602
		c1.281,0,2.321-0.271,3.121-0.814c0.8-0.547,1.201-1.246,1.201-2.1c0-0.678-0.288-1.238-0.862-1.678s-1.367-0.701-2.38-0.787
		c-0.242-0.023-0.596-0.049-1.057-0.074c-2.278-0.158-3.833-0.426-4.66-0.805c-0.647-0.309-1.137-0.709-1.471-1.199
		c-0.335-0.49-0.503-1.041-0.503-1.652c0-1.115,0.499-2.031,1.496-2.752c0.995-0.719,2.29-1.08,3.883-1.08
		c1.155,0,2.296,0.191,3.423,0.572s2.197,0.943,3.211,1.689l-1.005,1.432c-0.855-0.688-1.754-1.203-2.696-1.551
		s-1.912-0.521-2.909-0.521c-1.047,0-1.909,0.203-2.588,0.609c-0.678,0.404-1.019,0.914-1.019,1.527c0,0.24,0.055,0.465,0.163,0.664
		c0.11,0.201,0.278,0.391,0.504,0.566c0.568,0.428,1.801,0.699,3.693,0.816c0.871,0.051,1.546,0.104,2.023,0.164
		c1.407,0.158,2.522,0.611,3.344,1.355c0.82,0.746,1.23,1.664,1.23,2.752c0,1.299-0.564,2.369-1.69,3.205
		c-1.127,0.838-2.603,1.256-4.43,1.256c-1.381,0-2.667-0.201-3.851-0.602C97.439,59.832,96.31,59.215,95.238,58.387z"/>
	<path fill="#FFFFFF" d="M114.211,60.473v-9.236h-4.523V49.74h10.732v1.496h-4.536v9.236H114.211z"/>
	<path fill="#FFFFFF" d="M119.112,60.473l5.454-10.732h1.056l5.504,10.732h-1.796l-1.396-2.727h-5.667l-1.383,2.727H119.112z
		 M122.997,56.326h4.196l-2.086-4.109L122.997,56.326z"/>
	<path fill="#FFFFFF" d="M134.43,55.787v4.686h-1.684V49.768h7.389c1.098,0,1.955,0.262,2.577,0.791
		c0.618,0.527,0.929,1.26,0.929,2.199c0,0.762-0.245,1.422-0.734,1.979c-0.491,0.557-1.13,0.898-1.918,1.025l2.979,4.711h-1.822
		l-3.041-4.686H134.43z M134.43,54.215h5.705c0.578,0,1.021-0.125,1.325-0.377c0.306-0.252,0.459-0.611,0.459-1.08
		c0-0.471-0.153-0.826-0.459-1.074c-0.305-0.248-0.747-0.371-1.325-0.371h-5.705V54.215z"/>
	<path fill="#FFFFFF" d="M146.933,60.473V46.598h8.206c1.366,0,2.397,0.293,3.096,0.875c0.7,0.582,1.051,1.443,1.051,2.584
		c0,0.551-0.108,1.045-0.328,1.482c-0.217,0.436-0.527,0.787-0.929,1.055c0.738,0.428,1.294,0.949,1.671,1.572
		c0.377,0.617,0.566,1.33,0.566,2.135c0,1.281-0.422,2.297-1.264,3.047c-0.843,0.75-1.982,1.125-3.425,1.125H146.933z
		 M148.654,52.08h6.636c0.729,0,1.286-0.166,1.671-0.498c0.386-0.332,0.579-0.807,0.579-1.426c0-0.652-0.188-1.143-0.561-1.471
		c-0.373-0.326-0.936-0.49-1.689-0.49h-6.636V52.08z M148.654,58.877h7.264c0.788,0,1.408-0.232,1.86-0.697s0.679-1.1,0.679-1.904
		c0-0.797-0.227-1.428-0.679-1.898c-0.452-0.469-1.072-0.701-1.86-0.701h-7.264V58.877z"/>
	<path fill="#FFFFFF" d="M161.421,60.473l5.455-10.732h1.055l5.504,10.732h-1.797l-1.396-2.727h-5.667l-1.383,2.727H161.421z
		 M165.304,56.326h4.196l-2.084-4.109L165.304,56.326z"/>
	<path fill="#FFFFFF" d="M175.032,60.473V49.74h1.683v9.188h7.968v1.545H175.032z"/>
	<path fill="#FFFFFF" d="M186.59,60.473V49.74h1.684v9.188h7.968v1.545H186.59z"/>
</g>
</svg>
